General                          : ChattChitto RG - Movies [R2L]
==========
Complete name                    : GoodFellas 1990 BDRip 720p H264 [ChattChitto RG]
Format                           : MPEG-4
Format profile                   : Base Media
Codec ID                         : isom
File size                        : 2.70 GiB
Duration                         : 2h 25mn
Overall bit rate                 : 2 660 Kbps
Encoded date                     : UTC 2010-05-22 10:54:35

Video
==========
ID                               : 1
Format                           : AVC
Format/Info                      : Advanced Video Codec
Format profile                   : High@L4.0
Format settings, CABAC           : Yes
Format settings, ReFrames        : 4 frames
Codec ID                         : avc1
Codec ID/Info                    : Advanced Video Coding
Duration                         : 2h 25mn
Bit rate mode                    : Variable
Bit rate                         : 2 300 Kbps
Maximum bit rate                 : 12.0 Mbps
Width                            : 1 280 pixels
Height                           : 720 pixels
Display aspect ratio             : 16:9
Frame rate mode                  : Constant
Frame rate                       : 23.976 fps
Resolution                       : 8 bits
Colorimetry                      : 4:2:0
Scan type                        : Progressive
Bits/(Pixel*Frame)               : 0.104
Stream size                      : 2.34 GiB (86%)
Writing library                  : x264 core 84 r1400M 20fa784
Encoded date                     : UTC 2010-05-22 07:40:52

Audio
==========
ID                               : 2
Format                           : AAC
Format/Info                      : Advanced Audio Codec
Format version                   : Version 4
Format profile                   : LC
Format settings, SBR             : No
Codec ID                         : 40
Duration                         : 2h 25mn
Bit rate mode                    : Variable
Bit rate                         : 352.8 Kbps
Maximum bit rate                 : 434 Kbps
Channel(s)                       : 6 channels
Channel positions                : Front: L C R, Side: L R, LFE
Sampling rate                    : 48.0 KHz
Stream size                      : 371 MiB (13%)
Encoded date                     : UTC 2010-05-22 10:56:07

Subtitles                        : English | English [SDH] | French | Spanish


----------------------------------------------------
IMDB Link: http://www.imdb.com/title/tt0099685/
----------------------------------------------------



Screen Shots:
==============    
http://img23.imageshack.us/img23/9281/68705005.jpg 
http://img717.imageshack.us/img717/7629/53041237.jpg 
http://img442.imageshack.us/img442/7743/81021841.jpg 
http://img413.imageshack.us/img413/5731/88369612.jpg 
http://img85.imageshack.us/img85/3761/85812545.jpg



ScreenShots Comparison:
=========================  
http://screenshotcomparison.com/comparison/19725



Plot:
======
The lowly, blue-collar side of New York's Italian mafia is explored in this crime biopic of wiseguy Henry Hill. As he makes his way from strapping young petty criminal, to big-time thief, to middle-aged cocaine addict and dealer, the film explores in detail the rules and traditions of organized crime. Watching the rise and fall of Hill and his two counterparts, the slick jack-of-all-trades criminal Jimmy Conway and the brutish, intimidating Tommy DeVito, this true story realistically explores the core, blue-collar part of the mob.



Release Info:
==============
original name .... : GoodFellas 1990 BDRip 720p H264 [ChattChitto RG]
ripper.............: Recalled2Life (R2L)
encoder............: Recalled2Life (R2L)
video codec........: H264/.MP4
video bitrate......: 2300 Kbps
audio codec........: AAC-LC
aspect ratio.......: 16:9 | 1.78:1
resolution.........: 1280 x 720
genre..............: Biography | Crime | Drama
runtime............: 2h 25mn
language...........: English
rating.............: R
subtitles..........: English | English [SDH] | French | Spanish
sample.............: Yes [10.5 MB]
2ch Audio..........: 2ch Audio for XBox Viewers  
Compatibility .....: XBox 360 | PS3 | WD Live



Source:
========
GoodFellas Blu-Ray 1080p VC-1/AC3 5.1 - R2L [19.3 GB] Welcome!



Notes:
=======
ChattChitto RG Encourages Burning this Film with ConvertXtoDVD and Playing with VLC media player.
XBox 360 | PS3 | WD Live - Compatible 
Enhanced for your viewing pleasure ;)